<svg width="79" height="73" viewBox="0 0 79 73" fill="none" xmlns="http://www.w3.org/2000/svg">
<g filter="url(#filter0_d_192:441)">
<path fill-rule="evenodd" clip-rule="evenodd" d="M39.7079 31.1651L37.6503 28.6024C37.3528 28.2318 36.3913 27.7427 35.7859 28.0434L32.4069 29.8897L34.9418 32.4108L33.8734 32.6901L34.9191 36.2149L38.4178 35.868L40.8192 38.2563L43.603 36.0164L43.1103 35.4027L46.5331 35.0633L44.6102 31.0412C44.4268 30.6669 43.3376 30.2648 42.7949 30.3583L39.7079 31.1651Z" fill="#FFFEE5"/>
<path fill-rule="evenodd" clip-rule="evenodd" d="M39.7079 31.1651L37.6503 28.6024C37.3528 28.2318 36.3913 27.7427 35.7859 28.0434L32.4069 29.8897L34.9418 32.4108L33.8734 32.6901L34.9191 36.2149L38.4178 35.868L40.8192 38.2563L43.603 36.0164L43.1103 35.4027L46.5331 35.0633L44.6102 31.0412C44.4268 30.6669 43.3376 30.2648 42.7949 30.3583L39.7079 31.1651Z" fill="url(#paint0_linear_192:441)"/>
<path fill-rule="evenodd" clip-rule="evenodd" d="M39.5515 31.6474L36.9073 28.3541C36.6097 27.9835 36.1041 27.8744 35.6968 28.0927L31.6299 30.2731L34.6451 33.0344L35.6556 36.492L38.1502 36.2444L40.0762 38.0082L42.8475 35.7782L46.7837 35.3876L44.6746 31.1151C44.4634 30.6872 43.9919 30.4654 43.546 30.5842L39.5515 31.6474Z" fill="url(#paint1_linear_192:441)"/>
<path fill-rule="evenodd" clip-rule="evenodd" d="M41.7789 26.0343C41.9523 26.2036 42.0643 26.4299 42.0959 26.6751L41.3515 32.5904C41.3969 32.9433 41.7089 33.1911 42.0483 33.1438C42.0811 33.1392 42.1136 33.1319 42.1453 33.1219L32.2619 38.4034C31.5945 38.1809 31.1765 37.4929 31.2698 36.7705L32.2264 29.3636L31.4674 29.1106L32.0983 27.064L33.5054 27.5331C33.7753 27.5707 34.0199 27.7177 34.1862 27.9419L36.6741 31.2978C36.8832 31.5798 37.2725 31.6322 37.5436 31.4147C37.5699 31.3937 37.5945 31.3705 37.6171 31.3454L40.3183 26.0825C40.7089 25.6497 41.3628 25.6281 41.7789 26.0343Z" fill="url(#paint2_linear_192:441)"/>
<mask id="mask0_192:441" style="mask-type:alpha" maskUnits="userSpaceOnUse" x="31" y="25" width="12" height="14">
<path fill-rule="evenodd" clip-rule="evenodd" d="M41.7789 26.0343C41.9523 26.2036 42.0643 26.4299 42.0959 26.6751L41.3515 32.5904C41.3969 32.9433 41.7089 33.1911 42.0483 33.1438C42.0811 33.1392 42.1136 33.1319 42.1453 33.1219L32.2619 38.4034C31.5946 38.1809 31.1765 37.4929 31.2698 36.7705L32.2264 29.3636L31.4674 29.1106L32.0983 27.064L33.5054 27.5331C33.7753 27.5707 34.0199 27.7177 34.1862 27.9419L36.6741 31.2978C36.8832 31.5798 37.2725 31.6322 37.5436 31.4147C37.5699 31.3937 37.5945 31.3705 37.6171 31.3454L40.3183 26.0825C40.7089 25.6497 41.3628 25.6281 41.7789 26.0343Z" fill="white"/>
</mask>
<g mask="url(#mask0_192:441)">
<g filter="url(#filter1_f_192:441)">
<rect width="7.46788" height="1.37616" transform="matrix(0.948663 0.316287 -0.294573 0.955629 30.1021 25.7957)" fill="#FFFAE2"/>
</g>
</g>
<path fill-rule="evenodd" clip-rule="evenodd" d="M41.7786 26.0344C41.952 26.2037 42.064 26.43 42.0956 26.6752L41.3511 32.5905C41.3966 32.9434 41.7086 33.1912 42.048 33.1439C42.0808 33.1393 42.1132 33.132 42.145 33.122L46.0453 31.896C46.3165 31.8108 46.5951 31.847 46.8272 31.9747L48.2348 32.4442L47.604 34.4908L46.8448 34.2376L43.4825 40.8424C43.1545 41.4866 42.4298 41.7936 41.7624 41.5711L36.6738 31.2979C36.8828 31.5799 37.2721 31.6323 37.5433 31.4148C37.5695 31.3938 37.5941 31.3706 37.6168 31.3454L40.318 26.0826C40.7085 25.6498 41.3624 25.6282 41.7786 26.0344Z" fill="url(#paint3_linear_192:441)"/>
<mask id="mask1_192:441" style="mask-type:alpha" maskUnits="userSpaceOnUse" x="36" y="25" width="13" height="17">
<path fill-rule="evenodd" clip-rule="evenodd" d="M41.7786 26.0344C41.952 26.2037 42.064 26.43 42.0956 26.6752L41.3511 32.5905C41.3966 32.9434 41.7086 33.1912 42.048 33.1439C42.0808 33.1393 42.1132 33.132 42.145 33.122L46.0453 31.896C46.3165 31.8108 46.5951 31.847 46.8272 31.9747L48.2348 32.4442L47.604 34.4908L46.8448 34.2376L43.4825 40.8424C43.1545 41.4866 42.4298 41.7936 41.7624 41.5711L36.6738 31.2979C36.8828 31.5799 37.2721 31.6323 37.5433 31.4148C37.5695 31.3938 37.5941 31.3706 37.6168 31.3454L40.318 26.0826C40.7085 25.6498 41.3624 25.6282 41.7786 26.0344Z" fill="white"/>
</mask>
<g mask="url(#mask1_192:441)">
<g filter="url(#filter2_f_192:441)">
<rect width="7.46787" height="1.17957" transform="matrix(0.948663 0.316287 -0.294572 0.955629 42.6382 30.1826)" fill="#FFFAE2"/>
</g>
</g>
<path fill-rule="evenodd" clip-rule="evenodd" d="M32.6117 27.4168L35.0996 30.7727C35.3087 31.0547 35.698 31.1071 35.9691 30.8896C35.9954 30.8686 36.02 30.8454 36.0426 30.8202L40.3182 26.0822C40.7087 25.6495 41.3626 25.6279 41.7787 26.034C41.9522 26.2033 42.0642 26.4297 42.0958 26.6749L42.9256 33.115C42.9711 33.468 43.2831 33.7158 43.6224 33.6685C43.6553 33.6639 43.6877 33.6566 43.7195 33.6466L47.6198 32.4206C48.166 32.2489 48.7427 32.5702 48.9078 33.1383C48.9866 33.4094 48.9593 33.7018 48.8319 33.9521C48.8319 33.9521 45.3849 40.7229 45.057 41.367C44.729 42.0112 43.4302 43.2553 36.6967 41.0103C29.9632 38.7653 29.602 36.9678 29.6953 36.2454C29.7886 35.523 30.7693 27.9299 30.7693 27.9299C30.8453 27.3417 31.3653 26.9289 31.9309 27.0079C32.2008 27.0456 32.4454 27.1926 32.6117 27.4168Z" fill="white"/>
<g filter="url(#filter3_ii_192:441)">
<path fill-rule="evenodd" clip-rule="evenodd" d="M32.5667 27.5628L35.0996 30.7727C35.3087 31.0547 35.698 31.1071 35.9691 30.8896C35.9954 30.8686 36.02 30.8454 36.0426 30.8202L40.3182 26.0822C40.7087 25.6495 41.3626 25.6279 41.7787 26.034C41.9522 26.2033 42.0642 26.4297 42.0958 26.6749L42.9256 33.115C42.9711 33.468 43.2831 33.7158 43.6224 33.6685C43.6553 33.6639 43.6877 33.6566 43.7195 33.6466L47.5748 32.5665C48.121 32.3948 48.6977 32.7162 48.8628 33.2843C48.9416 33.5553 48.9143 33.8478 48.7869 34.098C48.7869 34.098 45.3399 40.8688 45.012 41.513C44.684 42.1571 43.3852 43.4012 36.6517 41.1563C29.9183 38.9113 29.557 37.1137 29.6503 36.3913C29.7436 35.669 30.7243 28.0759 30.7243 28.0759C30.8003 27.4877 31.3203 27.0749 31.8859 27.1539C32.1558 27.1916 32.4004 27.3385 32.5667 27.5628Z" fill="url(#paint4_linear_192:441)"/>
</g>
<mask id="mask2_192:441" style="mask-type:alpha" maskUnits="userSpaceOnUse" x="29" y="25" width="20" height="18">
<path fill-rule="evenodd" clip-rule="evenodd" d="M32.5667 27.5628L35.0996 30.7727C35.3087 31.0547 35.698 31.1071 35.9691 30.8896C35.9954 30.8686 36.02 30.8454 36.0426 30.8202L40.3182 26.0822C40.7087 25.6495 41.3626 25.6279 41.7787 26.034C41.9522 26.2033 42.0642 26.4297 42.0958 26.6749L42.9256 33.115C42.9711 33.468 43.2831 33.7158 43.6224 33.6685C43.6553 33.6639 43.6877 33.6566 43.7195 33.6466L47.5748 32.5665C48.121 32.3948 48.6977 32.7162 48.8628 33.2843C48.9416 33.5553 48.9143 33.8478 48.7869 34.098C48.7869 34.098 45.3399 40.8688 45.012 41.513C44.684 42.1571 43.3852 43.4012 36.6517 41.1563C29.9183 38.9113 29.557 37.1137 29.6503 36.3913C29.7436 35.669 30.7243 28.0759 30.7243 28.0759C30.8003 27.4877 31.3203 27.0749 31.8859 27.1539C32.1558 27.1916 32.4004 27.3385 32.5667 27.5628Z" fill="white"/>
</mask>
<g mask="url(#mask2_192:441)">
</g>
</g>
<g filter="url(#filter4_ii_192:441)">
<path d="M46.9366 25.7886C47.1396 25.4379 47.6758 25.5816 47.6763 25.9868V25.9868C47.6765 26.1281 47.7519 26.2587 47.8742 26.3295V26.3295C48.2248 26.5325 48.0812 27.0688 47.6759 27.0693V27.0693C47.5346 27.0694 47.4041 27.1448 47.3332 27.2671V27.2671C47.1302 27.6178 46.594 27.4741 46.5935 27.0689V27.0689C46.5933 26.9276 46.518 26.797 46.3956 26.7262V26.7262C46.045 26.5232 46.1886 25.9869 46.5939 25.9865V25.9865C46.7352 25.9863 46.8657 25.9109 46.9366 25.7886V25.7886Z" fill="#FFE177"/>
</g>
<g filter="url(#filter5_dii_192:441)">
<path d="M33.7714 31.8721C33.9178 31.6453 34.27 31.7582 34.2572 32.0278V32.0278C34.2528 32.1218 34.2987 32.2111 34.3778 32.2622V32.2622C34.6046 32.4086 34.4917 32.7607 34.2221 32.748V32.748C34.128 32.7436 34.0387 32.7895 33.9877 32.8686V32.8686C33.8413 33.0954 33.4891 32.9825 33.5019 32.7129V32.7129C33.5063 32.6188 33.4604 32.5295 33.3813 32.4785V32.4785C33.1545 32.3321 33.2674 31.9799 33.537 31.9926V31.9926C33.631 31.9971 33.7203 31.9511 33.7714 31.8721V31.8721Z" fill="#FFE177"/>
</g>
<g filter="url(#filter6_ii_192:441)">
<path d="M36.238 24.7416C36.2383 24.5065 36.5494 24.4231 36.6672 24.6266V24.6266C36.7083 24.6975 36.784 24.7413 36.866 24.7414V24.7414C37.1011 24.7416 37.1844 25.0527 36.981 25.1705V25.1705C36.91 25.2116 36.8663 25.2873 36.8662 25.3693V25.3693C36.8659 25.6044 36.5548 25.6877 36.4371 25.4843V25.4843C36.396 25.4133 36.3202 25.3696 36.2383 25.3695V25.3695C36.0032 25.3692 35.9198 25.0582 36.1233 24.9404V24.9404C36.1942 24.8993 36.2379 24.8236 36.238 24.7416V24.7416Z" fill="#FFE177"/>
</g>
<g filter="url(#filter7_dii_192:441)">
<path d="M41.4443 37.2044C41.6592 36.8333 42.2266 36.9854 42.2271 37.4141V37.4141C42.2273 37.5637 42.307 37.7018 42.4365 37.7768V37.7768C42.8075 37.9916 42.6555 38.559 42.2267 38.5595V38.5595C42.0772 38.5597 41.939 38.6395 41.8641 38.7689V38.7689C41.6493 39.14 41.0819 38.9879 41.0813 38.5592V38.5592C41.0812 38.4096 41.0014 38.2714 40.872 38.1965V38.1965C40.5009 37.9817 40.6529 37.4143 41.0817 37.4138V37.4138C41.2313 37.4136 41.3694 37.3338 41.4443 37.2044V37.2044Z" fill="#FFE177"/>
</g>
<defs>
<filter id="filter0_d_192:441" x="-2.62637" y="-9.62637" width="83.2913" height="84.2527" filterUnits="userSpaceOnUse" color-interpolation-filters="sRGB">
<feFlood flood-opacity="0" result="BackgroundImageFix"/>
<feColorMatrix in="SourceAlpha" type="matrix" values="0 0 0 0 0 0 0 0 0 0 0 0 0 0 0 0 0 0 127 0" result="hardAlpha"/>
<feOffset/>
<feGaussianBlur stdDeviation="14.8132"/>
<feColorMatrix type="matrix" values="0 0 0 0 1 0 0 0 0 0.889815 0 0 0 0 0.504167 0 0 0 1 0"/>
<feBlend mode="normal" in2="BackgroundImageFix" result="effect1_dropShadow_192:441"/>
<feBlend mode="normal" in="SourceGraphic" in2="effect1_dropShadow_192:441" result="shape"/>
</filter>
<filter id="filter1_f_192:441" x="27.8404" y="23.9393" width="11.2025" height="7.38976" filterUnits="userSpaceOnUse" color-interpolation-filters="sRGB">
<feFlood flood-opacity="0" result="BackgroundImageFix"/>
<feBlend mode="normal" in="SourceGraphic" in2="BackgroundImageFix" result="shape"/>
<feGaussianBlur stdDeviation="0.92819" result="effect1_foregroundBlur_192:441"/>
</filter>
<filter id="filter2_f_192:441" x="40.4341" y="28.3262" width="11.1449" height="7.20202" filterUnits="userSpaceOnUse" color-interpolation-filters="sRGB">
<feFlood flood-opacity="0" result="BackgroundImageFix"/>
<feBlend mode="normal" in="SourceGraphic" in2="BackgroundImageFix" result="shape"/>
<feGaussianBlur stdDeviation="0.92819" result="effect1_foregroundBlur_192:441"/>
</filter>
<filter id="filter3_ii_192:441" x="29.6396" y="25.7429" width="20.156" height="17.5874" filterUnits="userSpaceOnUse" color-interpolation-filters="sRGB">
<feFlood flood-opacity="0" result="BackgroundImageFix"/>
<feBlend mode="normal" in="SourceGraphic" in2="BackgroundImageFix" result="shape"/>
<feColorMatrix in="SourceAlpha" type="matrix" values="0 0 0 0 0 0 0 0 0 0 0 0 0 0 0 0 0 0 127 0" result="hardAlpha"/>
<feOffset dx="0.888402" dy="0.888402"/>
<feGaussianBlur stdDeviation="4.44201"/>
<feComposite in2="hardAlpha" operator="arithmetic" k2="-1" k3="1"/>
<feColorMatrix type="matrix" values="0 0 0 0 0.639216 0 0 0 0 0.392157 0 0 0 0 0.619608 0 0 0 1 0"/>
<feBlend mode="normal" in2="shape" result="effect1_innerShadow_192:441"/>
<feColorMatrix in="SourceAlpha" type="matrix" values="0 0 0 0 0 0 0 0 0 0 0 0 0 0 0 0 0 0 127 0" result="hardAlpha"/>
<feOffset dx="0.888402"/>
<feGaussianBlur stdDeviation="0.444201"/>
<feComposite in2="hardAlpha" operator="arithmetic" k2="-1" k3="1"/>
<feColorMatrix type="matrix" values="0 0 0 0 1 0 0 0 0 0.683333 0 0 0 0 0.841667 0 0 0 1 0"/>
<feBlend mode="normal" in2="effect1_innerShadow_192:441" result="effect2_innerShadow_192:441"/>
</filter>
<filter id="filter4_ii_192:441" x="46.1973" y="24.6025" width="1.87549" height="3.82457" filterUnits="userSpaceOnUse" color-interpolation-filters="sRGB">
<feFlood flood-opacity="0" result="BackgroundImageFix"/>
<feBlend mode="normal" in="SourceGraphic" in2="BackgroundImageFix" result="shape"/>
<feColorMatrix in="SourceAlpha" type="matrix" values="0 0 0 0 0 0 0 0 0 0 0 0 0 0 0 0 0 0 127 0" result="hardAlpha"/>
<feOffset dy="-0.987546"/>
<feGaussianBlur stdDeviation="0.987546"/>
<feComposite in2="hardAlpha" operator="arithmetic" k2="-1" k3="1"/>
<feColorMatrix type="matrix" values="0 0 0 0 1 0 0 0 0 0.803922 0 0 0 0 0.101961 0 0 0 1 0"/>
<feBlend mode="normal" in2="shape" result="effect1_innerShadow_192:441"/>
<feColorMatrix in="SourceAlpha" type="matrix" values="0 0 0 0 0 0 0 0 0 0 0 0 0 0 0 0 0 0 127 0" result="hardAlpha"/>
<feOffset dy="0.961538"/>
<feGaussianBlur stdDeviation="0.480769"/>
<feComposite in2="hardAlpha" operator="arithmetic" k2="-1" k3="1"/>
<feColorMatrix type="matrix" values="0 0 0 0 1 0 0 0 0 1 0 0 0 0 1 0 0 0 0.5 0"/>
<feBlend mode="normal" in2="effect1_innerShadow_192:441" result="effect2_innerShadow_192:441"/>
</filter>
<filter id="filter5_dii_192:441" x="31.3367" y="30.7629" width="5.0859" height="12.804" filterUnits="userSpaceOnUse" color-interpolation-filters="sRGB">
<feFlood flood-opacity="0" result="BackgroundImageFix"/>
<feColorMatrix in="SourceAlpha" type="matrix" values="0 0 0 0 0 0 0 0 0 0 0 0 0 0 0 0 0 0 127 0" result="hardAlpha"/>
<feOffset dy="8.65385"/>
<feGaussianBlur stdDeviation="0.961538"/>
<feColorMatrix type="matrix" values="0 0 0 0 1 0 0 0 0 0.901961 0 0 0 0 0.552941 0 0 0 0.6 0"/>
<feBlend mode="normal" in2="BackgroundImageFix" result="effect1_dropShadow_192:441"/>
<feBlend mode="normal" in="SourceGraphic" in2="effect1_dropShadow_192:441" result="shape"/>
<feColorMatrix in="SourceAlpha" type="matrix" values="0 0 0 0 0 0 0 0 0 0 0 0 0 0 0 0 0 0 127 0" result="hardAlpha"/>
<feOffset dy="-0.987546"/>
<feGaussianBlur stdDeviation="0.987546"/>
<feComposite in2="hardAlpha" operator="arithmetic" k2="-1" k3="1"/>
<feColorMatrix type="matrix" values="0 0 0 0 1 0 0 0 0 0.802631 0 0 0 0 0.1 0 0 0 1 0"/>
<feBlend mode="normal" in2="shape" result="effect2_innerShadow_192:441"/>
<feColorMatrix in="SourceAlpha" type="matrix" values="0 0 0 0 0 0 0 0 0 0 0 0 0 0 0 0 0 0 127 0" result="hardAlpha"/>
<feOffset dy="0.961538"/>
<feGaussianBlur stdDeviation="0.480769"/>
<feComposite in2="hardAlpha" operator="arithmetic" k2="-1" k3="1"/>
<feColorMatrix type="matrix" values="0 0 0 0 1 0 0 0 0 1 0 0 0 0 1 0 0 0 0.5 0"/>
<feBlend mode="normal" in2="effect2_innerShadow_192:441" result="effect3_innerShadow_192:441"/>
</filter>
<filter id="filter6_ii_192:441" x="36.0083" y="23.5239" width="1.08789" height="3.03697" filterUnits="userSpaceOnUse" color-interpolation-filters="sRGB">
<feFlood flood-opacity="0" result="BackgroundImageFix"/>
<feBlend mode="normal" in="SourceGraphic" in2="BackgroundImageFix" result="shape"/>
<feColorMatrix in="SourceAlpha" type="matrix" values="0 0 0 0 0 0 0 0 0 0 0 0 0 0 0 0 0 0 127 0" result="hardAlpha"/>
<feOffset dy="-0.987546"/>
<feGaussianBlur stdDeviation="0.987546"/>
<feComposite in2="hardAlpha" operator="arithmetic" k2="-1" k3="1"/>
<feColorMatrix type="matrix" values="0 0 0 0 1 0 0 0 0 0.803922 0 0 0 0 0.101961 0 0 0 1 0"/>
<feBlend mode="normal" in2="shape" result="effect1_innerShadow_192:441"/>
<feColorMatrix in="SourceAlpha" type="matrix" values="0 0 0 0 0 0 0 0 0 0 0 0 0 0 0 0 0 0 127 0" result="hardAlpha"/>
<feOffset dy="0.961538"/>
<feGaussianBlur stdDeviation="0.480769"/>
<feComposite in2="hardAlpha" operator="arithmetic" k2="-1" k3="1"/>
<feColorMatrix type="matrix" values="0 0 0 0 1 0 0 0 0 1 0 0 0 0 1 0 0 0 0.5 0"/>
<feBlend mode="normal" in2="effect1_innerShadow_192:441" result="effect2_innerShadow_192:441"/>
</filter>
<filter id="filter7_dii_192:441" x="34.8929" y="35.0713" width="13.5228" height="13.5231" filterUnits="userSpaceOnUse" color-interpolation-filters="sRGB">
<feFlood flood-opacity="0" result="BackgroundImageFix"/>
<feColorMatrix in="SourceAlpha" type="matrix" values="0 0 0 0 0 0 0 0 0 0 0 0 0 0 0 0 0 0 127 0" result="hardAlpha"/>
<feOffset dy="3.84615"/>
<feGaussianBlur stdDeviation="2.88462"/>
<feColorMatrix type="matrix" values="0 0 0 0 1 0 0 0 0 0.803922 0 0 0 0 0.101961 0 0 0 0.8 0"/>
<feBlend mode="normal" in2="BackgroundImageFix" result="effect1_dropShadow_192:441"/>
<feBlend mode="normal" in="SourceGraphic" in2="effect1_dropShadow_192:441" result="shape"/>
<feColorMatrix in="SourceAlpha" type="matrix" values="0 0 0 0 0 0 0 0 0 0 0 0 0 0 0 0 0 0 127 0" result="hardAlpha"/>
<feOffset dy="-0.987546"/>
<feGaussianBlur stdDeviation="0.987546"/>
<feComposite in2="hardAlpha" operator="arithmetic" k2="-1" k3="1"/>
<feColorMatrix type="matrix" values="0 0 0 0 1 0 0 0 0 0.803922 0 0 0 0 0.101961 0 0 0 1 0"/>
<feBlend mode="normal" in2="shape" result="effect2_innerShadow_192:441"/>
<feColorMatrix in="SourceAlpha" type="matrix" values="0 0 0 0 0 0 0 0 0 0 0 0 0 0 0 0 0 0 127 0" result="hardAlpha"/>
<feOffset dy="0.961538"/>
<feGaussianBlur stdDeviation="0.480769"/>
<feComposite in2="hardAlpha" operator="arithmetic" k2="-1" k3="1"/>
<feColorMatrix type="matrix" values="0 0 0 0 1 0 0 0 0 1 0 0 0 0 1 0 0 0 0.5 0"/>
<feBlend mode="normal" in2="effect2_innerShadow_192:441" result="effect3_innerShadow_192:441"/>
</filter>
<linearGradient id="paint0_linear_192:441" x1="32.3624" y1="30.3547" x2="41.5683" y2="40.5078" gradientUnits="userSpaceOnUse">
<stop stop-color="#FFEA9E"/>
<stop offset="0.5" stop-color="#FFDE67"/>
<stop offset="1" stop-color="#FFDD61"/>
</linearGradient>
<linearGradient id="paint1_linear_192:441" x1="45.5436" y1="29.8685" x2="35.7994" y2="26.8649" gradientUnits="userSpaceOnUse">
<stop stop-color="#FECD21"/>
<stop offset="0.521168" stop-color="#FFE177"/>
<stop offset="1" stop-color="#FECD21"/>
</linearGradient>
<linearGradient id="paint2_linear_192:441" x1="31.522" y1="29.1765" x2="34.7657" y2="32.0348" gradientUnits="userSpaceOnUse">
<stop stop-color="#FFEA9E"/>
<stop offset="1" stop-color="#FFC800"/>
</linearGradient>
<linearGradient id="paint3_linear_192:441" x1="46.6286" y1="29.9037" x2="42.9219" y2="30.4916" gradientUnits="userSpaceOnUse">
<stop stop-color="#FFE68D"/>
<stop offset="1" stop-color="#FFCA0C"/>
</linearGradient>
<linearGradient id="paint4_linear_192:441" x1="50.3209" y1="29.1763" x2="32.3088" y2="23.624" gradientUnits="userSpaceOnUse">
<stop stop-color="#FFD43E"/>
<stop offset="0.317708" stop-color="#FFE177"/>
<stop offset="0.489583" stop-color="#FFEA9E"/>
<stop offset="0.661458" stop-color="#FFE177"/>
<stop offset="1" stop-color="#FFD43E"/>
</linearGradient>
</defs>
</svg>
