<svg width="1841" height="840" viewBox="0 0 1841 840" fill="none" xmlns="http://www.w3.org/2000/svg">
<path d="M0 0H1931V706.5C1931 706.5 1801 350 965.5 706.5C130 1063 0 590.5 0 590.5V0Z" fill="url(#paint0_linear_163:440)" fill-opacity="0.4"/>
<path d="M0 -4H1931V667.153C1931 667.153 1913.5 359.874 965.5 667.153C17.5 974.433 0 551.127 0 551.127V-4Z" fill="url(#paint1_linear_163:440)"/>
<g filter="url(#filter0_f_163:440)">
<ellipse cx="954.5" cy="347.5" rx="266.5" ry="133.5" fill="#F7FDFE"/>
</g>
<g filter="url(#filter1_f_163:440)">
<path d="M1835.66 671.88C1746.72 552.61 1771.2 610.456 1597.34 547.243C1453.45 547.243 1508.9 547.243 1382 547.243C1382 457 1454.13 391 1597.34 391C1740.55 391 1872.83 721.742 1835.66 671.88Z" fill="#DBC9E9" fill-opacity="0.3"/>
</g>
<defs>
<filter id="filter0_f_163:440" x="638" y="164" width="633" height="367" filterUnits="userSpaceOnUse" color-interpolation-filters="sRGB">
<feFlood flood-opacity="0" result="BackgroundImageFix"/>
<feBlend mode="normal" in="SourceGraphic" in2="BackgroundImageFix" result="shape"/>
<feGaussianBlur stdDeviation="25" result="effect1_foregroundBlur_163:440"/>
</filter>
<filter id="filter1_f_163:440" x="1332" y="341" width="560" height="386" filterUnits="userSpaceOnUse" color-interpolation-filters="sRGB">
<feFlood flood-opacity="0" result="BackgroundImageFix"/>
<feBlend mode="normal" in="SourceGraphic" in2="BackgroundImageFix" result="shape"/>
<feGaussianBlur stdDeviation="25" result="effect1_foregroundBlur_163:440"/>
</filter>
<linearGradient id="paint0_linear_163:440" x1="46.5002" y1="851.5" x2="1976.5" y2="92.4999" gradientUnits="userSpaceOnUse">
<stop stop-color="#E2CDF3"/>
<stop offset="0.260417" stop-color="#DEDFFC"/>
<stop offset="1" stop-color="#F7FEFF"/>
</linearGradient>
<linearGradient id="paint1_linear_163:440" x1="46.5" y1="812.186" x2="1753.12" y2="79.8016" gradientUnits="userSpaceOnUse">
<stop offset="0.14779" stop-color="#E2CDF3"/>
<stop offset="0.291914" stop-color="#DEDFFC"/>
<stop offset="0.610493" stop-color="#F7FEFF"/>
<stop offset="0.895422" stop-color="#E6FDFF"/>
</linearGradient>
</defs>
</svg>
